Format                                   : AVI
Format/Info                              : Audio Video Interleave
File size                                : 1.37 GiB
Duration                                 : 1h 38mn
Overall bit rate                         : 1 996 Kbps
Writing application                      : VirtualDubMod 1.5.10.2 (build 2540/release)
Writing library                          : VirtualDubMod build 2540/release

Video
ID                                       : 0
Format                                   : MPEG-4 Visual
Format profile                           : Advanced Simple@L5
Format settings, BVOP                    : 2
Format settings, QPel                    : No
Format settings, GMC                     : No warppoints
Format settings, Matrix                  : Default (H.263)
Muxing mode                              : Packed bitstream
Codec ID                                 : XVID
Codec ID/Hint                            : XviD
Duration                                 : 1h 38mn
Bit rate                                 : 1 858 Kbps
Width                                    : 720 pixels
Height                                   : 304 pixels
Display aspect ratio                     : 2.35:1
Frame rate                               : 23.976 fps
Color space                              : YUV
Chroma subsampling                       : 4:2:0
Bit depth                                : 8 bits
Scan type                                : Progressive
Compression mode                         : Lossy
Bits/(Pixel*Frame)                       : 0.354
Stream size                              : 1.28 GiB (93%)
Writing library                          : XviD 64

Audio
ID                                       : 1
Format                                   : MPEG Audio
Format version                           : Version 1
Format profile                           : Layer 3
Codec ID                                 : 55
Codec ID/Hint                            : MP3
Duration                                 : 1h 38mn
Bit rate mode                            : Constant
Bit rate                                 : 128 Kbps
Channel(s)                               : 2 channels
Sampling rate                            : 48.0 KHz
Compression mode                         : Lossy
Stream size                              : 90.0 MiB (6%)
Alignment                                : Aligned on interleaves
Interleave, duration                     : 42 ms (1.00 video frame)
Interleave, preload duration             : 504 ms
Writing library                          : LAME3.98.

Source Used Hangover 3 The.Hangover.Part.III.2013.X264.AC3-SmY - Thanks

Blurred out 1 watermark left both lines of subs lose way too much if cropped.If you gonna bitch tell it to someone who cares as i dont give a crap ....Subs are no biggie imo.....well they are but not 

Tagged R6 but wtf R6 is DVD region code no more no less

Side note "We rose above this new breed of encoders,didnt we nick a nick  
 
http://www.shotpix.com/images/28110703133761628126.png 
http://www.shotpix.com/images/10392271201401011187.png 
http://www.shotpix.com/images/36652151523341720058.png 
http://www.shotpix.com/images/93000482534878900314.png